<?xml version="1.0" encoding="UTF-8" standalone="no"?>
<!-- Created with Inkscape (http://www.inkscape.org/) -->

<svg
   xmlns:dc="http://purl.org/dc/elements/1.1/"
   xmlns:cc="http://creativecommons.org/ns#"
   xmlns:rdf="http://www.w3.org/1999/02/22-rdf-syntax-ns#"
   xmlns:svg="http://www.w3.org/2000/svg"
   xmlns="http://www.w3.org/2000/svg"
   xmlns:sodipodi="http://sodipodi.sourceforge.net/DTD/sodipodi-0.dtd"
   xmlns:inkscape="http://www.inkscape.org/namespaces/inkscape"
   width="210mm"
   height="297mm"
   viewBox="0 0 210 297"
   version="1.1"
   id="svg882"
   inkscape:version="0.92.3 (2405546, 2018-03-11)"
   sodipodi:docname="system.svg">
  <defs
     id="defs876" />
  <sodipodi:namedview
     id="base"
     pagecolor="#ffffff"
     bordercolor="#666666"
     borderopacity="1.0"
     inkscape:pageopacity="0.0"
     inkscape:pageshadow="2"
     inkscape:zoom="0.70710678"
     inkscape:cx="893.63558"
     inkscape:cy="151.563"
     inkscape:document-units="mm"
     inkscape:current-layer="layer2"
     showgrid="false"
     inkscape:snap-object-midpoints="true"
     inkscape:snap-center="true"
     inkscape:snap-others="true"
     inkscape:object-nodes="true"
     inkscape:snap-intersection-paths="true"
     inkscape:snap-smooth-nodes="false"
     inkscape:snap-midpoints="true"
     inkscape:snap-nodes="true"
     inkscape:snap-bbox="true"
     inkscape:window-width="1366"
     inkscape:window-height="705"
     inkscape:window-x="-8"
     inkscape:window-y="-8"
     inkscape:window-maximized="1"
     inkscape:bbox-paths="true"
     inkscape:bbox-nodes="true"
     inkscape:snap-bbox-edge-midpoints="true"
     inkscape:snap-bbox-midpoints="true"
     inkscape:object-paths="true"
     inkscape:snap-global="true" />
  <metadata
     id="metadata879">
    <rdf:RDF>
      <cc:Work
         rdf:about="">
        <dc:format>image/svg+xml</dc:format>
        <dc:type
           rdf:resource="http://purl.org/dc/dcmitype/StillImage" />
        <dc:title />
      </cc:Work>
    </rdf:RDF>
  </metadata>
  <g
     inkscape:groupmode="layer"
     id="layer2"
     inkscape:label="Vrstva 2"
     style="opacity:0.29683698">
    <rect
       style="opacity:1;fill:#000000;fill-opacity:1;stroke:#000000;stroke-width:0.30867559;stroke-linecap:butt;stroke-linejoin:round;stroke-miterlimit:4;stroke-dasharray:none;stroke-opacity:1;paint-order:markers fill stroke"
       id="rect897-8-7-2-8"
       width="4.4225302"
       height="147.43225"
       x="234.76656"
       y="-188.61078"
       ry="0"
       transform="matrix(0.00626518,0.99998037,-0.99999993,3.7445198e-4,0,0)" />
    <rect
       style="opacity:1;fill:#000000;fill-opacity:1;stroke:#000000;stroke-width:0.1957335;stroke-linecap:butt;stroke-linejoin:round;stroke-miterlimit:4;stroke-dasharray:none;stroke-opacity:1;paint-order:markers fill stroke"
       id="rect897"
       width="4.527739"
       height="161.32738"
       x="122.16685"
       y="58.884876"
       ry="0"
       transform="matrix(0.99997758,-0.00669637,3.5033994e-4,0.99999994,0,0)" />
    <rect
       style="opacity:1;fill:#000000;fill-opacity:1;stroke:#000000;stroke-width:0.19422971;stroke-linecap:butt;stroke-linejoin:round;stroke-miterlimit:4;stroke-dasharray:none;stroke-opacity:1;paint-order:markers fill stroke"
       id="rect897-8"
       width="4.5297585"
       height="122.31535"
       x="39.34729"
       y="117.11054"
       ry="0"
       transform="matrix(0.99998712,-0.00507478,4.6228968e-4,0.99999989,0,0)" />
    <rect
       style="opacity:1;fill:#000000;fill-opacity:1;stroke:#000000;stroke-width:0.20559366;stroke-linecap:butt;stroke-linejoin:round;stroke-miterlimit:4;stroke-dasharray:none;stroke-opacity:1;paint-order:markers fill stroke"
       id="rect897-8-7-2"
       width="4.5473862"
       height="63.608658"
       x="214.95499"
       y="-189.52446"
       ry="0"
       transform="matrix(0.00262886,0.99999654,-0.9999996,8.9242134e-4,0,0)" />
    <rect
       style="opacity:1;fill:#000000;fill-opacity:1;stroke:#000000;stroke-width:0.2219563;stroke-linecap:butt;stroke-linejoin:round;stroke-miterlimit:4;stroke-dasharray:none;stroke-opacity:1;paint-order:markers fill stroke"
       id="rect897-8-7-2-1"
       width="4.5023184"
       height="30.868715"
       x="221.76799"
       y="-189.80711"
       ry="0"
       transform="matrix(0.00128853,0.99999917,-0.99999834,0.00182072,0,0)" />
    <rect
       style="opacity:1;fill:#000000;fill-opacity:1;stroke:#000000;stroke-width:0.2;stroke-linecap:butt;stroke-linejoin:round;stroke-miterlimit:4;stroke-dasharray:none;stroke-opacity:1;paint-order:markers fill stroke"
       id="rect1034"
       width="5.0781207"
       height="22.985178"
       x="-72.331512"
       y="82.229271"
       transform="rotate(-53.183174)" />
    <rect
       style="opacity:1;fill:#000000;fill-opacity:1;stroke:#000000;stroke-width:0.20005122;stroke-linecap:butt;stroke-linejoin:round;stroke-miterlimit:4;stroke-dasharray:none;stroke-opacity:1;paint-order:markers fill stroke"
       id="rect1051"
       width="4.4210348"
       height="46.282448"
       x="23.44249"
       y="89.651604"
       transform="matrix(0.61428807,-0.78908185,0.80833197,0.58872695,0,0)" />
    <rect
       style="opacity:1;fill:#000000;fill-opacity:1;stroke:#000000;stroke-width:0.2;stroke-linecap:butt;stroke-linejoin:round;stroke-miterlimit:4;stroke-dasharray:none;stroke-opacity:1;paint-order:markers fill stroke"
       id="rect1053"
       width="18.708866"
       height="121.34036"
       x="75.857353"
       y="-42.628086"
       transform="rotate(39.011517)" />
    <path
       style="opacity:1;fill:none;fill-opacity:1;stroke:#000000;stroke-width:0.2;stroke-linecap:butt;stroke-linejoin:round;stroke-miterlimit:4;stroke-dasharray:none;stroke-opacity:1;paint-order:markers fill stroke"
       id="path1088"
       sodipodi:type="arc"
       sodipodi:cx="93.579498"
       sodipodi:cy="223.46495"
       sodipodi:rx="0.75025576"
       sodipodi:ry="0.75025576"
       sodipodi:start="4.6839227"
       sodipodi:end="4.712389"
       sodipodi:open="true"
       d="m 93.558144,222.715 a 0.75025576,0.75025576 0 0 1 0.02135,-3.1e-4" />
    <circle
       style="opacity:1;fill:#ffffff;fill-opacity:1;stroke:#000000;stroke-width:1;stroke-linecap:butt;stroke-linejoin:round;stroke-miterlimit:4;stroke-dasharray:none;stroke-opacity:1;paint-order:markers fill stroke"
       id="path1094"
       cx="92.201393"
       cy="236.89526"
       r="8.9485664" />
    <rect
       style="opacity:1;fill:none;fill-opacity:1;stroke:#000000;stroke-width:1;stroke-linecap:butt;stroke-linejoin:round;stroke-miterlimit:4;stroke-dasharray:none;stroke-opacity:1;paint-order:markers fill stroke"
       id="rect1276"
       width="57.074402"
       height="78.997025"
       x="146.27678"
       y="177.55951" />
    <path
       style="opacity:1;fill:none;fill-opacity:1;stroke:#000000;stroke-width:1;stroke-linecap:butt;stroke-linejoin:round;stroke-miterlimit:4;stroke-dasharray:none;stroke-opacity:1;paint-order:markers fill stroke"
       id="path1278"
       sodipodi:type="arc"
       sodipodi:cx="174.81396"
       sodipodi:cy="177.55951"
       sodipodi:rx="28.537201"
       sodipodi:ry="10.77232"
       sodipodi:start="3.1415927"
       sodipodi:end="4.6410205e-008"
       d="m 146.27676,177.55951 a 28.537201,10.77232 0 0 1 28.53721,-10.77232 28.537201,10.77232 0 0 1 28.5372,10.77232 l -28.53721,0 z" />
    <path
       style="opacity:1;fill:none;fill-opacity:1;stroke:#000000;stroke-width:1;stroke-linecap:butt;stroke-linejoin:round;stroke-miterlimit:4;stroke-dasharray:none;stroke-opacity:1;paint-order:markers fill stroke"
       id="path1280"
       sodipodi:type="arc"
       sodipodi:cx="174.81396"
       sodipodi:cy="256.55652"
       sodipodi:rx="28.537201"
       sodipodi:ry="6.6145821"
       sodipodi:start="0"
       sodipodi:end="3.1415927"
       d="m 203.35117,256.55652 a 28.537201,6.6145821 0 0 1 -14.26861,5.72839 28.537201,6.6145821 0 0 1 -28.5372,0 28.537201,6.6145821 0 0 1 -14.2686,-5.72839"
       sodipodi:open="true" />
    <path
       style="opacity:1;fill:#000000;fill-opacity:1;stroke:#000000;stroke-width:0.2;stroke-linecap:butt;stroke-linejoin:round;stroke-miterlimit:4;stroke-dasharray:none;stroke-opacity:1;paint-order:markers fill stroke"
       d="m 159.22679,221.46745 a 5.5692915,5.5692915 0 0 0 -4.82296,2.78484 5.5692915,5.5692915 0 0 0 0,5.56917 5.5692915,5.5692915 0 0 0 4.82296,2.78484 v -4.52427 a 1.0453024,1.0453024 0 0 1 -0.90537,-0.52245 1.0453024,1.0453024 0 0 1 0,-1.04541 1.0453024,1.0453024 0 0 1 0.90537,-0.52245 z"
       id="path1321"
       inkscape:connector-curvature="0" />
    <path
       style="fill:#020000;fill-opacity:1;stroke:#000000;stroke-width:0.2;stroke-linecap:butt;stroke-linejoin:miter;stroke-miterlimit:4;stroke-dasharray:none;stroke-opacity:1"
       d="m 83.253425,236.89526 13.422704,-7.74943 -2.64e-4,15.4992 z"
       id="path1274"
       inkscape:connector-curvature="0" />
    <path
       style="opacity:1;fill:#000000;fill-opacity:1;stroke:#000000;stroke-width:0.2;stroke-linecap:butt;stroke-linejoin:round;stroke-miterlimit:4;stroke-dasharray:none;stroke-opacity:1;paint-order:markers fill stroke"
       d="m 190.09545,214.79666 a 5.5692916,5.5692916 0 0 1 4.82296,2.78484 5.5692916,5.5692916 0 0 1 0,5.56917 5.5692916,5.5692916 0 0 1 -4.82296,2.78484 v -4.52427 a 1.0453024,1.0453024 0 0 0 0.90537,-0.52245 1.0453024,1.0453024 0 0 0 0,-1.04541 1.0453024,1.0453024 0 0 0 -0.90537,-0.52245 z"
       id="path1321-5"
       inkscape:connector-curvature="0"
       inkscape:transform-center-x="-23.080481"
       inkscape:transform-center-y="-1.1779737" />
    <path
       style="opacity:1;fill:#000000;fill-opacity:1;stroke:#000000;stroke-width:0.2;stroke-linecap:butt;stroke-linejoin:round;stroke-miterlimit:4;stroke-dasharray:none;stroke-opacity:1;paint-order:markers fill stroke"
       d="m 190.09547,228.02583 a 5.5692916,5.5692916 0 0 1 4.82296,2.78484 5.5692916,5.5692916 0 0 1 0,5.56917 5.5692916,5.5692916 0 0 1 -4.82296,2.78484 v -4.52427 a 1.0453024,1.0453024 0 0 0 0.90537,-0.52245 1.0453024,1.0453024 0 0 0 0,-1.04541 1.0453024,1.0453024 0 0 0 -0.90537,-0.52245 z"
       id="path1321-5-7"
       inkscape:connector-curvature="0"
       inkscape:transform-center-x="-23.080481"
       inkscape:transform-center-y="-1.1779737" />
    <rect
       style="opacity:1;fill:#000000;fill-opacity:1;stroke:#000000;stroke-width:0.22195634;stroke-linecap:butt;stroke-linejoin:round;stroke-miterlimit:4;stroke-dasharray:none;stroke-opacity:1;paint-order:markers fill stroke"
       id="rect897-8-7-2-1-7"
       width="4.5023179"
       height="30.868725"
       x="228.38257"
       y="-189.7986"
       ry="0"
       transform="matrix(0.00128854,0.99999917,-0.99999834,0.00182072,0,0)" />
    <rect
       style="opacity:1;fill:#000000;fill-opacity:1;stroke:#000000;stroke-width:0.14226051;stroke-linecap:butt;stroke-linejoin:round;stroke-miterlimit:4;stroke-dasharray:none;stroke-opacity:1;paint-order:markers fill stroke"
       id="rect897-8-7-2-2"
       width="4.5868082"
       height="30.193731"
       x="244.19746"
       y="-202.94345"
       ry="0"
       transform="matrix(0.00123714,0.99999923,-0.9999982,0.00189635,0,0)" />
    <rect
       style="opacity:1;fill:#000000;fill-opacity:1;stroke:#000000;stroke-width:0.08857518;stroke-linecap:butt;stroke-linejoin:round;stroke-miterlimit:4;stroke-dasharray:none;stroke-opacity:1;paint-order:markers fill stroke"
       id="rect897-8-7-2-2-0"
       width="9.0822973"
       height="5.9113541"
       x="245.47977"
       y="-209.07343"
       ry="0"
       transform="matrix(1.2229954e-4,0.99999999,-0.99981606,0.01917936,0,0)" />
  </g>
  <g
     inkscape:label="Vrstva 1"
     inkscape:groupmode="layer"
     id="layer1" />
</svg>
