<?xml version="1.0" standalone="no"?>
<!DOCTYPE svg PUBLIC "-//W3C//DTD SVG 20010904//EN"
 "http://www.w3.org/TR/2001/REC-SVG-20010904/DTD/svg10.dtd">
<svg version="1.0" xmlns="http://www.w3.org/2000/svg"
 width="128.000000pt" height="128.000000pt" viewBox="0 0 128.000000 128.000000"
 preserveAspectRatio="xMidYMid meet">
<metadata>
Created by potrace 1.11, written by Peter Selinger 2001-2013
</metadata>
<g transform="translate(0.000000,128.000000) scale(0.100000,-0.100000)"
fill="#000000" stroke="none">
<path d="M842 1168 c-14 -17 -13 -99 0 -116 19 -23 35 5 32 59 -2 56 -14 78
-32 57z"/>
<path d="M1077 1023 c-39 -39 -47 -63 -21 -63 20 0 84 65 84 85 0 25 -25 17
-63 -22z"/>
<path d="M773 1005 c-19 -8 -33 -21 -33 -31 0 -14 6 -15 38 -8 98 20 159 7
218 -50 52 -50 69 -104 59 -188 -7 -54 -6 -60 11 -56 34 6 43 94 19 174 -29
95 -118 164 -219 169 -37 2 -74 -2 -93 -10z"/>
<path d="M445 956 c-136 -44 -228 -155 -242 -292 -4 -39 -11 -57 -22 -61 -100
-30 -170 -123 -176 -230 -6 -104 50 -199 143 -245 l47 -23 465 0 c256 0 477 3
493 8 44 12 105 74 117 118 22 82 -13 148 -107 200 -20 11 -31 28 -40 61 -26
98 -128 188 -225 197 -5 1 -8 9 -8 19 0 34 -48 118 -90 160 -68 66 -139 97
-235 99 -46 2 -97 -3 -120 -11z m217 -46 c92 -34 172 -120 180 -193 3 -25 -2
-30 -35 -42 -42 -14 -106 -60 -114 -82 -13 -34 15 -33 56 1 143 120 337 19
350 -181 1 -7 8 -13 17 -13 9 0 34 -10 55 -22 86 -48 85 -168 -4 -215 -29 -15
-77 -17 -482 -18 -344 -1 -461 2 -496 12 -141 40 -193 238 -91 346 32 34 92
67 122 67 11 0 20 6 21 13 7 149 17 182 76 248 83 91 225 124 345 79z"/>
<path d="M1127 784 c-3 -3 -3 -12 0 -20 4 -10 23 -14 64 -14 52 0 59 2 59 20
0 18 -7 20 -58 20 -32 0 -61 -3 -65 -6z"/>
</g>
</svg>
